<svg xmlns="http://www.w3.org/2000/svg" width="267" height="258" viewBox="0 0 267 258" version="1.1"><path d="M 123.075 32.082 C 83.411 39.914, 57.576 77.983, 65.591 116.785 C 71.123 143.571, 89.661 163.934, 116 172.158 C 122.323 174.132, 125.540 174.489, 136.500 174.430 C 147.778 174.370, 150.560 174.009, 157.500 171.706 C 167.690 168.324, 176.503 163.093, 184.803 155.500 C 200.340 141.286, 208.510 121.336, 207.791 99.373 L 207.500 90.500 192.374 90.225 L 177.248 89.949 176.823 101.880 C 176.418 113.226, 176.215 114.180, 172.683 121.327 C 160.012 146.965, 127.356 152.454, 107.209 132.332 C 87.259 112.409, 93.083 77.907, 118.325 66.478 C 127.731 62.219, 133.947 61.721, 169 62.417 C 186.875 62.772, 202.850 62.678, 204.500 62.209 L 207.500 61.356 207.500 46.428 L 207.500 31.500 167.500 31.354 C 145.500 31.274, 125.509 31.601, 123.075 32.082 M 45.710 215.612 C 37.868 218.022, 34.899 225.041, 38.926 231.647 C 41.486 235.845, 46.529 237.475, 57 237.489 C 64.033 237.498, 66.157 237.112, 69.307 235.250 C 73.936 232.514, 73.940 232.514, 73.290 235 C 72.837 236.731, 73.259 237, 76.433 237 L 80.100 237 79.800 231.250 L 79.500 225.500 70.514 225.500 C 62.750 225.500, 61.482 225.738, 61.190 227.250 C 60.907 228.720, 61.626 229.002, 65.677 229.015 C 69.160 229.026, 70.083 229.300, 69 230 C 66.829 231.403, 52.941 231.192, 50 229.712 C 46.324 227.862, 46.029 223.320, 49.499 222 C 53.613 220.436, 66.283 220.747, 68.559 222.468 C 69.626 223.276, 72.412 223.951, 74.750 223.968 C 78.226 223.994, 79 223.664, 79 222.155 C 79 219.722, 76.029 217.130, 71.316 215.449 C 66.298 213.659, 51.762 213.752, 45.710 215.612 M 85 226 L 85 237 103.063 237 L 121.127 237 120.813 233.750 L 120.500 230.500 107.250 230.221 C 99.874 230.066, 94 229.526, 94 229.005 C 94 228.489, 98.838 227.940, 104.750 227.784 C 113.513 227.552, 115.500 227.223, 115.500 226 C 115.500 224.777, 113.513 224.448, 104.750 224.216 C 96.100 223.988, 94 223.646, 94 222.466 C 94 221.250, 96.305 221, 107.500 221 L 121 221 121 218 L 121 215 103 215 L 85 215 85 226 M 125 226 L 125 237 129.454 237 L 133.909 237 134.204 230.480 L 134.500 223.961 145.747 230.480 C 155.055 235.876, 157.770 237, 161.497 237 L 166 237 166 226 L 166 215 161.546 215 L 157.091 215 156.796 221.397 L 156.500 227.795 145.741 221.397 C 136.371 215.826, 134.338 215, 129.991 215 L 125 215 125 226 M 200.750 220.447 C 199.238 221.236, 198 221.458, 198 220.941 C 198 220.423, 197.100 220, 196 220 C 194.156 220, 194 220.667, 194 228.573 C 194 236.198, 194.194 237.110, 195.750 236.814 C 197.114 236.555, 197.568 235.277, 197.810 231.021 C 198.183 224.453, 199.216 223, 203.515 223 C 207.401 223, 208 224.145, 208 231.582 C 208 236.333, 208.246 237, 210 237 C 211.804 237, 211.998 236.338, 211.985 230.250 C 211.968 222.902, 211.595 221.876, 208.316 220.150 C 205.471 218.652, 204.086 218.707, 200.750 220.447 M 220.359 220.445 C 214.725 222.896, 213.782 230.922, 218.635 235.109 C 226.500 241.895, 238.820 234.221, 234.972 224.933 C 232.770 219.617, 226.610 217.725, 220.359 220.445 M 171 226.845 C 171 232.435, 171.369 234.024, 173.013 235.512 C 175.547 237.805, 180.393 237.860, 182.864 235.623 C 184.534 234.112, 184.822 234.093, 185.345 235.457 C 185.671 236.306, 186.626 237, 187.469 237 C 188.724 237, 189 235.466, 189 228.500 C 189 220.667, 188.843 220, 187 220 C 185.249 220, 185 220.667, 185 225.345 C 185 231.106, 183.118 234, 179.371 234 C 176.116 234, 175 231.906, 175 225.800 C 175 220.667, 174.770 220, 173 220 C 171.195 220, 171 220.667, 171 226.845 M 221.517 224.392 C 218.594 227.315, 218.412 228.716, 220.557 231.777 C 222.702 234.840, 228.298 234.840, 230.443 231.777 C 232.474 228.879, 232.413 226.673, 230.250 224.773 C 226.873 221.808, 224.217 221.692, 221.517 224.392" stroke="none" fill="#f5f8fa" fill-rule="evenodd"/><path d="M -0 129.004 L -0 258.007 133.750 257.754 L 267.500 257.500 267.754 128.750 L 268.008 0 134.004 0 L 0 0 -0 129.004 M 0.485 129.500 C 0.485 200.450, 0.604 229.622, 0.750 194.328 C 0.895 159.033, 0.896 100.983, 0.750 65.328 C 0.604 29.672, 0.485 58.550, 0.485 129.500 M 123.075 32.082 C 83.411 39.914, 57.576 77.983, 65.591 116.785 C 71.123 143.571, 89.661 163.934, 116 172.158 C 122.323 174.132, 125.540 174.489, 136.500 174.430 C 147.778 174.370, 150.560 174.009, 157.500 171.706 C 167.690 168.324, 176.503 163.093, 184.803 155.500 C 200.340 141.286, 208.510 121.336, 207.791 99.373 L 207.500 90.500 192.374 90.225 L 177.248 89.949 176.823 101.880 C 176.418 113.226, 176.215 114.180, 172.683 121.327 C 160.012 146.965, 127.356 152.454, 107.209 132.332 C 87.259 112.409, 93.083 77.907, 118.325 66.478 C 127.731 62.219, 133.947 61.721, 169 62.417 C 186.875 62.772, 202.850 62.678, 204.500 62.209 L 207.500 61.356 207.500 46.428 L 207.500 31.500 167.500 31.354 C 145.500 31.274, 125.509 31.601, 123.075 32.082 M 45.710 215.612 C 37.868 218.022, 34.899 225.041, 38.926 231.647 C 41.486 235.845, 46.529 237.475, 57 237.489 C 64.033 237.498, 66.157 237.112, 69.307 235.250 C 73.936 232.514, 73.940 232.514, 73.290 235 C 72.837 236.731, 73.259 237, 76.433 237 L 80.100 237 79.800 231.250 L 79.500 225.500 70.514 225.500 C 62.750 225.500, 61.482 225.738, 61.190 227.250 C 60.907 228.720, 61.626 229.002, 65.677 229.015 C 69.160 229.026, 70.083 229.300, 69 230 C 66.829 231.403, 52.941 231.192, 50 229.712 C 46.324 227.862, 46.029 223.320, 49.499 222 C 53.613 220.436, 66.283 220.747, 68.559 222.468 C 69.626 223.276, 72.412 223.951, 74.750 223.968 C 78.226 223.994, 79 223.664, 79 222.155 C 79 219.722, 76.029 217.130, 71.316 215.449 C 66.298 213.659, 51.762 213.752, 45.710 215.612 M 85 226 L 85 237 103.063 237 L 121.127 237 120.813 233.750 L 120.500 230.500 107.250 230.221 C 99.874 230.066, 94 229.526, 94 229.005 C 94 228.489, 98.838 227.940, 104.750 227.784 C 113.513 227.552, 115.500 227.223, 115.500 226 C 115.500 224.777, 113.513 224.448, 104.750 224.216 C 96.100 223.988, 94 223.646, 94 222.466 C 94 221.250, 96.305 221, 107.500 221 L 121 221 121 218 L 121 215 103 215 L 85 215 85 226 M 125 226 L 125 237 129.454 237 L 133.909 237 134.204 230.480 L 134.500 223.961 145.747 230.480 C 155.055 235.876, 157.770 237, 161.497 237 L 166 237 166 226 L 166 215 161.546 215 L 157.091 215 156.796 221.397 L 156.500 227.795 145.741 221.397 C 136.371 215.826, 134.338 215, 129.991 215 L 125 215 125 226 M 200.750 220.447 C 199.238 221.236, 198 221.458, 198 220.941 C 198 220.423, 197.100 220, 196 220 C 194.156 220, 194 220.667, 194 228.573 C 194 236.198, 194.194 237.110, 195.750 236.814 C 197.114 236.555, 197.568 235.277, 197.810 231.021 C 198.183 224.453, 199.216 223, 203.515 223 C 207.401 223, 208 224.145, 208 231.582 C 208 236.333, 208.246 237, 210 237 C 211.804 237, 211.998 236.338, 211.985 230.250 C 211.968 222.902, 211.595 221.876, 208.316 220.150 C 205.471 218.652, 204.086 218.707, 200.750 220.447 M 220.359 220.445 C 214.725 222.896, 213.782 230.922, 218.635 235.109 C 226.500 241.895, 238.820 234.221, 234.972 224.933 C 232.770 219.617, 226.610 217.725, 220.359 220.445 M 171 226.845 C 171 232.435, 171.369 234.024, 173.013 235.512 C 175.547 237.805, 180.393 237.860, 182.864 235.623 C 184.534 234.112, 184.822 234.093, 185.345 235.457 C 185.671 236.306, 186.626 237, 187.469 237 C 188.724 237, 189 235.466, 189 228.500 C 189 220.667, 188.843 220, 187 220 C 185.249 220, 185 220.667, 185 225.345 C 185 231.106, 183.118 234, 179.371 234 C 176.116 234, 175 231.906, 175 225.800 C 175 220.667, 174.770 220, 173 220 C 171.195 220, 171 220.667, 171 226.845 M 221.517 224.392 C 218.594 227.315, 218.412 228.716, 220.557 231.777 C 222.702 234.840, 228.298 234.840, 230.443 231.777 C 232.474 228.879, 232.413 226.673, 230.250 224.773 C 226.873 221.808, 224.217 221.692, 221.517 224.392" stroke="none" fill="#0577b3" fill-rule="evenodd"/></svg>